<?xml version="1.0" encoding="UTF-8" standalone="no"?>
<!-- Created with Inkscape (http://www.inkscape.org/) -->

<svg
   width="2.7100425mm"
   height="2.7148702mm"
   viewBox="0 0 271.00154 271.4843"
   version="1.1"
   id="svg1"
   xml:space="preserve"
   inkscape:version="1.4.2 (f4327f4, 2025-05-13)"
   sodipodi:docname="favicon-dark-small.svg"
   inkscape:export-filename="favicon-light.png"
   inkscape:export-xdpi="95.805275"
   inkscape:export-ydpi="95.805275"
   xmlns:inkscape="http://www.inkscape.org/namespaces/inkscape"
   xmlns:sodipodi="http://sodipodi.sourceforge.net/DTD/sodipodi-0.dtd"
   xmlns="http://www.w3.org/2000/svg"
   xmlns:svg="http://www.w3.org/2000/svg"><sodipodi:namedview
     id="namedview1"
     pagecolor="#ffffff"
     bordercolor="#000000"
     borderopacity="0.25"
     inkscape:showpageshadow="2"
     inkscape:pageopacity="0.0"
     inkscape:pagecheckerboard="0"
     inkscape:deskcolor="#d1d1d1"
     inkscape:document-units="mm"
     inkscape:zoom="23.261988"
     inkscape:cx="0.10747147"
     inkscape:cy="3.9764444"
     inkscape:window-width="1440"
     inkscape:window-height="821"
     inkscape:window-x="-7"
     inkscape:window-y="-7"
     inkscape:window-maximized="1"
     inkscape:current-layer="layer1" /><defs
     id="defs1" /><g
     inkscape:label="Lager 1"
     inkscape:groupmode="layer"
     id="layer1"
     transform="translate(62.40836,-250.19378)"><path
       style="fill:#000000;fill-opacity:1"
       d="m -40.416754,521.15199 c -11.033049,-4.7658 -22.307997,-15.38954 -21.867357,-28.20663 -0.07434,-45.30653 -0.294483,-90.61896 0.125461,-135.92264 5.139295,-13.09617 18.691683,-24.81853 33.792582,-23.36586 28.06593783,-0.36688 56.148424,0.22736 84.204729,-0.45295 -6.344669,-9.72728 -17.680088,-17.94505 -25.837814,-27.19407 -7.943191,-8.51219 -10.777775,-27.47255 4.827489,-23.45785 10.204523,7.11333 18.234217,17.56079 27.509355,26.05304 7.114022,6.96466 8.246952,13.7903 18.604674,2.8841 19.949445,-20.42898 40.856705,-40.21104 60.461395,-60.78232 8.80482,-2.70167 18.49422,5.71416 14.10241,14.76935 -8.92834,11.50546 -20.60307,21.03596 -30.60007,31.76219 -11.55499,11.70679 -23.45894,23.1252 -34.858999,34.94888 12.179169,2.82674 27.655209,0.54728 41.074789,1.33604 17.39889,0.24842 34.85983,-0.47557 52.21944,0.60924 11.78661,3.26319 23.01337,13.42717 25.06374,25.26675 0.19528,46.28092 0.32472,92.56877 -0.0611,138.84779 -3.66811,11.10695 -13.90305,21.94696 -25.88781,23.22806 -73.54107,0.23622 -147.087469,0.32015 -220.627574,-0.047 l -2.24529,-0.27614 z M 78.513451,500.45382 c 15.655471,-1.94055 33.666339,-0.69006 45.736379,-12.53368 8.74639,-11.37272 9.74683,-26.37452 10.51257,-40.22648 -0.29977,-24.08456 2.71726,-49.25898 -5.58326,-72.2358 -5.53164,-13.08456 -20.00375,-17.12992 -32.77241,-18.93312 -33.207578,-1.23817 -66.565423,-1.78054 -99.7249165,0.37958 -11.5371235,1.9166 -24.9184385,5.21707 -30.6040605,16.70146 -6.536053,14.22892 -6.614074,30.60216 -7.489657,46.06918 -0.256497,19.18126 0.15241,38.71435 5.110837,57.30738 4.069825,12.61732 16.466502,19.32127 28.7843805,21.33808 28.5764945,3.29383 57.3217555,2.41189 86.0301375,2.1334 z m 97.631249,-41.7845 c 13.53438,-1.76958 16.1866,-24.14123 3.28245,-29.28108 -10.98818,-6.00771 -25.63209,3.92539 -22.88803,16.62601 0.99366,9.85271 10.41381,14.88783 19.60558,12.65507 z M 176.02674,417.131 c 14.64969,-2.59649 16.18968,-26.51605 1.59124,-30.2407 -14.67282,-6.57344 -28.18208,13.55842 -17.79725,25.2785 3.31796,4.53405 10.86645,7.19739 16.20601,4.9622 z"
       id="path1"
       sodipodi:nodetypes="scccccccccccccccccccsccccccccccccccccccc" /></g></svg>
