<?xml version="1.0" encoding="UTF-8" standalone="no"?>
<!-- Created with Inkscape (http://www.inkscape.org/) -->

<svg
   width="429.6799mm"
   height="133.09854mm"
   viewBox="0 0 429.6799 133.09854"
   version="1.1"
   id="svg1"
   xml:space="preserve"
   inkscape:version="1.4.2 (f4327f4, 2025-05-13)"
   sodipodi:docname="Cineasterna.svg"
   xmlns:inkscape="http://www.inkscape.org/namespaces/inkscape"
   xmlns:sodipodi="http://sodipodi.sourceforge.net/DTD/sodipodi-0.dtd"
   xmlns="http://www.w3.org/2000/svg"
   xmlns:svg="http://www.w3.org/2000/svg"><sodipodi:namedview
     id="namedview1"
     pagecolor="#ffffff"
     bordercolor="#000000"
     borderopacity="0.25"
     inkscape:showpageshadow="2"
     inkscape:pageopacity="0.0"
     inkscape:pagecheckerboard="0"
     inkscape:deskcolor="#d1d1d1"
     inkscape:document-units="mm"
     inkscape:zoom="0.36346856"
     inkscape:cx="855.64485"
     inkscape:cy="480.09655"
     inkscape:window-width="1440"
     inkscape:window-height="821"
     inkscape:window-x="-7"
     inkscape:window-y="-7"
     inkscape:window-maximized="1"
     inkscape:current-layer="layer1" /><defs
     id="defs1" /><g
     inkscape:label="Lager 1"
     inkscape:groupmode="layer"
     id="layer1"
     transform="translate(114.1411,-80.089697)"><path
       style="fill:#000000"
       d="m -95.226822,212.90774 c -5.181198,-0.80462 -9.674448,-3.1535 -13.265028,-6.93439 -2.25489,-2.3744 -3.85352,-4.97158 -4.88615,-7.93817 -0.74959,-2.15347 -0.75949,-2.26003 -0.76299,-8.20941 -0.003,-5.41589 0.0525,-6.19459 0.54882,-7.67291 2.39272,-7.12717 7.87557,-12.41263 15.190348,-14.64349 2.208482,-0.67355 2.71719,-0.72624 7.011459,-0.72624 4.276127,0 4.808191,0.0545 6.957638,0.71306 7.280513,2.23056 12.713666,7.22245 15.097421,13.87126 l 0.687731,1.91823 -3.36775,-0.001 -3.367749,-0.001 -1.051037,-2.04938 c -1.841711,-3.5911 -5.212965,-6.42598 -9.443765,-7.94126 -1.689963,-0.60526 -2.367787,-0.69682 -5.247906,-0.70887 -2.709134,-0.0113 -3.64226,0.0923 -5.159375,0.57298 -9.329665,2.95606 -14.215685,13.24733 -10.864515,22.8836 2.2856,6.57223 8.71669,11.11862 15.759307,11.14087 3.060929,0.01 4.975671,-0.43753 7.907772,-1.84691 3.129961,-1.50449 5.786743,-4.0278 7.127127,-6.76907 l 0.873259,-1.78594 h 3.418635 3.418635 l -0.620033,1.70818 c -1.041383,2.86897 -2.717676,5.3905 -5.300331,7.9729 -3.124213,3.12391 -6.299573,4.94392 -10.607356,6.07978 -1.900522,0.50112 -7.804071,0.71688 -10.054167,0.36745 z m 108.876039,0.0996 c -8.5490263,-1.34645 -14.18181722,-5.41899 -17.713942,-12.80729 -1.7360214,-3.63132 -2.2060151,-5.8257 -2.2060151,-10.2998 0,-4.52955 0.4724776,-6.69037 2.2851835,-10.45105 2.8100393,-5.82975 7.8027455,-10.06191 14.0628996,-11.92065 1.852869,-0.55015 3.144466,-0.73648 5.820833,-0.83971 7.049439,-0.27191 12.528018,1.63738 17.115129,5.96462 4.695114,4.42914 7.088259,9.91383 7.092391,16.2546 l 0.0019,2.84427 H 20.106681 0.10581216 l 0.1868537,1.38906 c 0.94159104,6.99975 5.71403124,12.18953 12.87440514,14.00023 1.788159,0.45219 2.687503,0.52858 4.844688,0.41152 5.618222,-0.3049 10.014743,-2.83243 12.974179,-7.45877 l 0.93579,-1.46287 h 3.453095 3.453095 l -1.216069,2.28597 c -3.441429,6.46922 -9.127552,10.63593 -16.196631,11.86867 -2.080719,0.36285 -6.133657,0.47829 -7.766001,0.2212 z m 19.787833,-27.648 c -1.059345,-5.8284 -5.897808,-11.00427 -11.982624,-12.81822 -2.086482,-0.622 -6.253891,-0.63078 -8.598959,-0.0181 -6.4867862,1.69472 -11.228905,6.64609 -12.39836524,12.94548 l -0.2333155,1.25677 H 16.954549 33.685311 Z m 28.864047,27.41185 c -4.674308,-0.84615 -8.108826,-2.65134 -11.501711,-6.04533 -3.118037,-3.11905 -4.917197,-6.2539 -6.088114,-10.60791 -0.664909,-2.47243 -0.801008,-8.54069 -0.252781,-11.27071 0.964262,-4.80174 3.192845,-8.8485 6.701043,-12.16804 2.951367,-2.79266 5.685351,-4.30425 9.882113,-5.46371 2.384136,-0.65867 9.426617,-0.64402 11.874236,0.0247 3.998583,1.09248 7.953876,3.61443 10.318749,6.57939 l 1.190625,1.49275 0.07322,-3.81855 0.07322,-3.81854 h 3.300219 3.300218 v 22.0927 22.09271 h -3.307291 -3.307292 v -3.86267 -3.86268 l -1.22029,1.62335 c -4.3558,5.79449 -12.593985,8.54074 -21.036162,7.01253 z m 9.953327,-6.106 c 4.314337,-1.10298 8.445627,-4.50865 10.415444,-8.58607 3.117152,-6.45235 2.814786,-12.65958 -0.887986,-18.22934 -4.684345,-7.04627 -14.107199,-9.39585 -22.053349,-5.499 -2.225437,1.09137 -5.387135,4.06411 -6.731333,6.32903 -1.694385,2.85498 -2.382952,5.41608 -2.407834,8.95585 -0.02455,3.49281 0.513015,5.68178 2.176343,8.86204 3.547618,6.78299 11.63945,10.17418 19.488715,8.16749 z m 34.131256,6.0822 C 99.960617,211.38385 95.140882,206.04682 95.140882,200.2957 v -1.13504 h 3.145554 3.145554 l 0.17471,0.99219 c 0.57424,3.26125 2.21477,5.5763 4.85773,6.85503 1.29627,0.62717 1.84409,0.73144 3.89,0.7404 2.08249,0.009 2.54722,-0.0779 3.70416,-0.69386 3.99934,-2.12914 5.60288,-6.56951 3.74143,-10.36042 -1.23904,-2.52335 -3.16576,-3.67112 -9.86386,-5.87599 -2.40498,-0.79167 -5.07108,-1.81163 -5.92465,-2.26658 -4.286349,-2.2846 -6.303608,-6.36366 -5.573786,-11.27063 0.565792,-3.80412 2.837693,-7.13673 6.061316,-8.89125 1.96042,-1.067 5.03502,-1.77331 7.69927,-1.76873 6.7204,0.0116 11.58086,3.25601 13.07429,8.72734 0.21847,0.80037 0.46851,1.96123 0.55567,2.57969 l 0.15845,1.12448 h -3.31042 -3.31042 v -0.74662 c 0,-2.47104 -2.02779,-5.17981 -4.48979,-5.99756 -1.82696,-0.60682 -4.71773,-0.44921 -6.25975,0.34129 -2.47675,1.26967 -4.09424,4.20787 -3.69408,6.71033 0.54465,3.40608 2.82583,5.06546 9.61421,6.99359 7.69362,2.18526 10.85164,4.64683 12.13229,9.45673 0.54602,2.05073 0.47355,5.87033 -0.14963,7.88677 -2.14167,6.9298 -9.89411,10.79909 -18.13345,9.05053 z m 63.10312,0.28239 c -0.3638,-0.0643 -1.37583,-0.24559 -2.24896,-0.40283 -2.32935,-0.41946 -5.40106,-1.68063 -7.5958,-3.11865 -4.48981,-2.94177 -7.673,-7.32321 -9.38297,-12.915 -0.64979,-2.12488 -0.71173,-2.70736 -0.71173,-6.69305 0,-3.98476 0.062,-4.56849 0.71109,-6.69087 2.46745,-8.06843 8.40835,-13.83474 16.45025,-15.96682 2.60449,-0.69051 9.51533,-0.68639 12.17083,0.007 10.18865,2.66136 17.04719,11.52695 17.06215,22.05512 l 0.003,2.4474 h -19.97604 -19.97604 v 0.87045 c 0,1.39402 0.72612,3.86836 1.76331,6.00872 1.94308,4.00973 6.45847,7.4701 11.20127,8.58407 6.81674,1.60109 14.52619,-1.51376 17.85938,-7.21573 l 0.79375,-1.35784 3.37344,-0.005 c 2.16209,-0.003 3.37343,0.0935 3.37343,0.26987 0,0.43536 -1.03696,2.36081 -2.20296,4.0905 -3.07844,4.56669 -7.36706,7.6766 -12.79982,9.28182 -1.8569,0.54867 -3.02279,0.7059 -5.76701,0.77775 -1.89177,0.0495 -3.73724,0.0374 -4.10104,-0.0269 z m 19.84375,-26.91797 c 0,-1.95268 -1.9336,-6.12209 -3.86095,-8.32534 -1.44563,-1.65257 -3.98247,-3.51471 -6.00931,-4.41108 -9.721,-4.29909 -21.58364,1.92565 -23.32626,12.24009 l -0.18749,1.10977 h 16.692 16.69201 z m 97.29624,26.67051 c -9.07926,-1.71973 -15.77349,-8.46529 -17.71649,-17.85234 -0.67435,-3.25795 -0.54168,-8.33284 0.30097,-11.51203 1.09252,-4.12192 3.32244,-7.93408 6.27627,-10.72958 2.77378,-2.62511 5.21857,-4.03223 9.01166,-5.18675 2.10613,-0.64106 2.75028,-0.71124 6.69593,-0.72954 5.08632,-0.0236 6.4298,0.25492 10.22863,2.12049 2.71056,1.33113 5.3872,3.58207 6.85986,5.76885 l 0.90318,1.34114 v -4.16366 -4.16365 h 3.175 3.175 v 22.0927 22.09271 h -3.175 -3.175 v -3.99785 -3.99786 l -1.14552,1.55046 c -2.54895,3.45001 -6.30844,5.92721 -10.76073,7.09047 -2.4105,0.6298 -8.0198,0.77534 -10.65376,0.27644 z m 9.9923,-6.1151 c 7.34164,-1.8675 12.56771,-8.99928 12.56771,-17.15058 0,-2.91815 -0.46838,-4.84704 -1.89356,-7.79806 -3.35036,-6.9374 -11.71489,-10.71857 -19.37643,-8.75908 -9.96326,2.54818 -15.37253,12.90361 -11.936,22.85011 0.8897,2.57509 2.12408,4.54522 4.10182,6.54668 4.18376,4.23395 10.43378,5.86328 16.53646,4.31093 z M -64.667447,189.76797 v -22.0927 h 3.307291 3.307292 v 22.0927 22.09271 h -3.307292 -3.307291 z m 13.493749,0 v -22.0927 h 3.042709 3.042708 v 3.32255 3.32255 l 1.256771,-1.65869 c 1.633697,-2.15615 4.477029,-4.09649 7.474479,-5.10071 4.066688,-1.36244 10.610806,-1.25173 14.936782,0.2527 5.075787,1.76518 8.552236,5.80114 10.250407,11.90014 0.571943,2.05413 0.592023,2.56024 0.679715,17.13177 l 0.09036,15.0151 h -3.170095 -3.170094 l -0.101028,-13.69218 c -0.09635,-13.05806 -0.12756,-13.78794 -0.673917,-15.75963 -1.546912,-5.5825 -4.958171,-8.8374 -10.186071,-9.7192 -6.583427,-1.11044 -12.782016,1.62425 -15.372657,6.7821 -1.560364,3.10662 -1.574637,3.26271 -1.685447,18.43214 l -0.101951,13.95677 h -3.156336 -3.156337 z m 187.324998,2.64584 v -19.44688 h -4.23333 -4.23334 v -2.64583 -2.64583 h 4.23334 4.23333 v -8.20209 -8.20208 h 3.30729 3.30729 v 8.20208 8.20209 h 4.7625 4.7625 v 2.64583 2.64583 h -4.7625 -4.7625 v 19.44688 19.44687 h -3.30729 -3.30729 z m 63.76458,-2.64584 v -22.0927 h 3.175 3.175 v 3.07181 3.07182 l 1.15334,-1.56671 c 2.45178,-3.3305 7.16214,-5.61439 11.61281,-5.63066 l 1.25677,-0.005 v 3.01586 3.01585 l -1.91823,0.1905 c -5.68563,0.56465 -9.24357,3.29462 -10.9732,8.41962 l -0.72871,2.15921 -0.0819,14.22136 -0.0819,14.22135 h -3.29451 -3.2945 z m 23.28334,0 v -22.0927 h 3.21302 3.21302 l -0.13965,3.44302 -0.13964,3.44302 0.71704,-1.12792 c 1.89926,-2.98758 6.09014,-5.60569 10.31041,-6.44109 2.71992,-0.53841 8.54858,-0.39917 11.00392,0.26288 4.69089,1.26482 8.45154,4.29986 10.40602,8.3982 2.18648,4.58484 2.40973,6.7481 2.4191,23.44116 l 0.007,12.76614 h -3.29246 -3.29246 l -0.098,-14.08906 c -0.10713,-15.3962 -0.0707,-15.00942 -1.7501,-18.59814 -2.101,-4.48975 -6.9867,-7.03376 -12.73361,-6.63047 -4.2122,0.29559 -6.97463,1.41667 -9.35416,3.79619 -0.81599,0.816 -1.81296,2.18618 -2.27794,3.13069 -1.51813,3.08376 -1.58742,3.90308 -1.59248,18.8309 l -0.005,13.55989 h -3.30729 -3.30729 z M -64.667447,155.63672 v -4.36562 h 3.307291 3.307292 v 4.36562 4.36563 h -3.307292 -3.307291 z m 157.691663,-19.5764 c -5.838836,-1.00003 -10.342644,-2.85306 -18.60419,-7.65445 -1.864857,-1.0838 -4.305638,-2.35998 -5.423958,-2.83595 -1.839568,-0.78294 -2.337079,-0.8753 -5.22134,-0.96931 -2.431996,-0.0793 -3.404548,-0.01 -4.101041,0.29243 -1.243129,0.53965 -4.065619,2.85534 -7.364982,6.04254 l -2.747802,2.65438 -0.552267,-0.55226 -0.552266,-0.55227 1.802993,-1.81692 c 0.991646,-0.9993 1.940896,-2.05862 2.109444,-2.35403 0.168548,-0.29542 0.648088,-0.96614 1.065644,-1.49049 0.831234,-1.04384 2.156359,-4.35901 4.98137,-12.46227 2.208447,-6.3347 3.553966,-9.22162 5.999405,-12.87218 3.15921,-4.716081 8.562016,-10.659475 11.94024,-13.134943 1.091406,-0.799752 2.371328,-1.817348 2.844271,-2.261325 0.771664,-0.724402 0.859896,-0.752494 0.859896,-0.273785 0,0.293395 -0.398259,1.00136 -0.88502,1.573257 -0.48676,0.571897 -1.216639,1.575594 -1.621952,2.230437 -0.405314,0.654844 -1.48106,2.202657 -2.390547,3.439584 -2.016316,2.742244 -3.628992,5.530358 -8.263746,14.286985 -3.802915,7.185 -7.351586,13.36886 -9.224189,16.07395 -0.629607,0.90951 -1.085238,1.65365 -1.012514,1.65365 0.452061,0 2.949684,-1.49524 3.83766,-2.29747 2.316644,-2.09295 5.394823,-7.32728 7.641706,-12.99445 2.553987,-6.44175 4.162903,-9.24633 8.213759,-14.317792 2.241567,-2.806327 9.485161,-10.890939 10.688846,-11.929874 1.389399,-1.19923 2.276413,-1.689265 2.276413,-1.257614 0,0.210017 -0.247446,0.605786 -0.549881,0.879485 -0.556874,0.503965 -4.593286,7.170868 -7.432112,12.275549 -0.852438,1.532826 -2.088496,4.171458 -2.746795,5.863626 -1.954432,5.0239 -7.094388,12.32912 -11.768674,16.72635 -1.183983,1.11381 -2.074777,2.02511 -1.979542,2.02511 0.09524,0 1.705389,-0.77913 3.578121,-1.7314 5.059164,-2.57254 5.878117,-3.40973 11.506175,-11.76235 4.731369,-7.02185 5.902928,-8.460116 14.116559,-17.330214 6.9071,-7.459144 9.19145,-9.588526 9.71966,-9.060314 0.25061,0.250613 -8.927551,14.903693 -12.524287,19.995218 -5.21516,7.38257 -6.978242,9.3481 -10.583454,11.79876 -1.053804,0.71633 -1.87197,1.34646 -1.818145,1.40028 0.214844,0.21485 3.801345,-0.82223 4.793833,-1.38619 1.33286,-0.75737 7.712778,-7.64451 10.485238,-11.31885 3.232173,-4.283593 6.371355,-7.089702 14.002225,-12.516561 3.70586,-2.635504 7.35356,-5.103786 8.10599,-5.485073 0.75243,-0.381287 1.44304,-0.814576 1.53469,-0.962864 0.20993,-0.339679 0.66457,-0.352517 0.66457,-0.01877 0,0.604687 -3.47747,4.29148 -13.62299,14.443032 -8.217702,8.222586 -11.364637,11.198596 -12.967639,12.263306 -1.164167,0.77323 -2.176198,1.46882 -2.248959,1.54575 -0.216972,0.2294 2.236631,-0.1629 7.011458,-1.12104 7.91754,-1.58878 26.3807,-3.40953 29.63119,-2.92209 0.6827,0.10238 1.19049,0.23692 1.12842,0.29899 -0.0621,0.0621 -1.94821,0.23182 -4.19143,0.37724 -2.24323,0.14542 -5.50734,0.40732 -7.25359,0.58201 -3.01284,0.3014 -3.10599,0.32803 -1.82368,0.52135 3.61022,0.54428 7.75767,2.44459 10.54432,4.83127 0.73344,0.62816 3.23852,3.03889 5.56686,5.35716 5.1865,5.1641 8.57231,7.45792 13.62604,9.23137 1.43584,0.50386 1.58264,0.60675 0.88912,0.6232 -2.48798,0.059 -8.45413,-1.63728 -12.20641,-3.47046 -3.25775,-1.59158 -5.75581,-3.58037 -10.16624,-8.0937 -3.87569,-3.9661 -7.5561,-6.81227 -10.00189,-7.73473 -0.50932,-0.1921 -1.0451,-0.43801 -1.19062,-0.54647 -0.14552,-0.10845 -1.15756,-0.0937 -2.24896,0.0327 -1.09141,0.12646 -2.19274,0.23515 -2.4474,0.24154 -0.78211,0.0196 -0.51509,0.41605 0.52917,0.78562 1.39175,0.49254 4.08067,2.33293 6.41614,4.39142 1.09141,0.96197 3.71079,2.98791 5.82084,4.50207 2.11005,1.51417 4.84849,3.5978 6.08541,4.63029 1.23693,1.03249 2.75498,2.17825 3.37344,2.54613 2.02601,1.20512 1.28662,1.37838 -2.44739,0.57347 -1.99034,-0.42904 -6.85575,-2.84755 -9.39271,-4.66895 -1.23693,-0.88804 -4.39209,-3.40414 -7.01146,-5.59132 -7.21708,-6.02626 -8.13436,-6.37422 -13.918435,-5.27978 l -3.279484,0.62053 1.767368,0.20304 c 3.793939,0.43587 6.136751,1.79849 11.329511,6.58947 1.96453,1.81253 4.22672,3.77906 5.02708,4.37007 1.74615,1.28939 7.21211,4.60532 8.40779,5.10059 1.15283,0.47752 1.07759,0.81915 -0.13956,0.63366 -5.67832,-0.86537 -10.72387,-3.08897 -16.51286,-7.27732 -5.149908,-3.72596 -8.745607,-6.07688 -10.805371,-7.06468 -1.714919,-0.82243 -2.235867,-0.94948 -3.836458,-0.93564 -1.606476,0.0139 -2.441366,0.23744 -6.295763,1.68583 -2.444023,0.91841 -4.397925,1.71558 -4.342003,1.7715 0.05592,0.0559 1.42341,-0.19668 3.038864,-0.56135 3.357199,-0.75784 5.330842,-0.82674 7.942873,-0.27729 4.120965,0.86688 7.204281,2.45171 11.998468,6.16725 1.65187,1.28022 3.58648,2.72855 4.29913,3.21852 1.42124,0.97715 8.4611,5.20589 8.96994,5.38812 0.17471,0.0626 0.23822,0.19958 0.14112,0.30447 -0.29763,0.32152 -4.87435,-0.35706 -7.03899,-1.04365 -2.8475,-0.90319 -5.52032,-2.33011 -10.620041,-5.66966 -2.414187,-1.58092 -5.163338,-3.29697 -6.109223,-3.81343 -2.808382,-1.53339 -6.216379,-2.53842 -9.726717,-2.86844 -1.708066,-0.16058 -3.174682,-0.39825 -3.259147,-0.52815 -0.08446,-0.1299 -1.096496,0.16818 -2.248959,0.66241 -2.95544,1.26741 -6.760591,3.14169 -6.634413,3.26787 0.05844,0.0584 1.103625,-0.16547 2.322639,-0.49757 4.053609,-1.10434 9.186983,-0.74752 14.519513,1.00924 3.528202,1.16233 7.672101,3.41266 14.022917,7.61507 3.419741,2.26289 6.900911,4.50466 7.735921,4.98171 2.64652,1.512 1.87445,1.64453 -2.84776,0.48886 -7.106841,-1.73926 -9.526655,-2.79078 -16.553943,-7.19345 -4.68751,-2.93678 -8.295868,-4.73912 -10.559218,-5.27424 -0.878755,-0.20776 -3.268737,-0.35175 -6.033316,-0.3635 l -4.578108,-0.0194 -1.455324,0.88983 c -0.800429,0.48941 -1.419186,0.92556 -1.375017,0.96923 0.04417,0.0437 0.616089,-0.0242 1.270932,-0.15071 0.654844,-0.12655 2.024063,-0.23438 3.042709,-0.23962 5.074088,-0.0261 8.112764,1.2475 18.729916,7.85021 5.512636,3.42827 8.537432,5.04808 10.289905,5.51037 0.744516,0.1964 1.478835,0.48226 1.631818,0.63525 0.385943,0.38594 -2.58131,0.31872 -5.119348,-0.11597 z m 56.560674,-9.64281 c -6.30924,-1.70173 -10.8978,-4.50715 -17.16335,-10.49355 -2.38702,-2.28067 -5.05441,-4.67935 -5.92753,-5.33039 -1.7344,-1.29326 -4.37036,-2.71414 -5.03515,-2.71414 -0.23102,0 -0.34645,-0.11906 -0.25652,-0.26458 0.24225,-0.39197 3.72846,-0.31343 5.59174,0.12598 4.05471,0.9562 6.35543,2.47763 12.01272,7.94381 4.36459,4.21715 7.64071,6.90646 11.87633,9.74907 1.94275,1.30382 2.12946,1.49368 1.45521,1.4798 -0.42543,-0.009 -1.57448,-0.23195 -2.55345,-0.496 z m 15.62367,-13.38332 c -0.97168,-0.19348 -3.23387,-0.82781 -5.02708,-1.40963 -3.41617,-1.10839 -5.96659,-1.55255 -13.84372,-2.41091 -2.61938,-0.28542 -5.65547,-0.76179 -6.74688,-1.05858 -1.0914,-0.29679 -2.93687,-0.78239 -4.10104,-1.07911 -1.16416,-0.29672 -2.62268,-0.66951 -3.24114,-0.82843 -0.61847,-0.15892 -1.12448,-0.37614 -1.12448,-0.4827 0,-0.3439 9.9654,-0.87468 13.57004,-0.72277 5.6192,0.23681 11.30394,1.69374 16.21057,4.15456 3.60887,1.80996 7.39524,4.35532 6.26887,4.2142 -0.10914,-0.0137 -0.99345,-0.18316 -1.96514,-0.37663 z m -70.861428,-4.44355 c 0,-0.0818 0.982266,-0.78986 2.182813,-1.5735 1.200547,-0.78364 3.671095,-2.76837 5.490105,-4.41052 9.63055,-8.69415 17.86248,-13.117136 30.11133,-16.178715 2.26441,-0.565985 4.16412,-0.982053 4.22158,-0.924595 0.19471,0.194715 -2.30871,1.520754 -4.50172,2.384522 -4.84635,1.908846 -13.36891,6.836825 -17.39577,10.058718 -3.84483,3.07625 -3.93857,3.13865 -8.06979,5.37195 -6.10391,3.29973 -12.038548,5.89873 -12.038548,5.27214 z m 12.327408,-1.99484 c -0.0766,-0.12391 0.36287,-0.3744 0.97657,-0.55663 1.39298,-0.41363 6.93347,-2.9983 9.05332,-4.22341 0.87312,-0.50461 2.74879,-1.78149 4.16815,-2.837528 5.39507,-4.01404 12.78134,-7.301379 22.78865,-10.142332 1.58384,-0.449635 2.93344,-0.763795 2.9991,-0.698135 0.30099,0.300996 -3.26983,2.687531 -6.64331,4.440008 -2.04594,1.062836 -6.16372,3.465187 -9.15062,5.338557 -8.74037,5.48193 -12.68666,7.19276 -19.30148,8.3678 -3.25559,0.57832 -4.66988,0.66845 -4.89038,0.31167 z m 14.39551,-1.17833 c 0,-0.41196 2.49845,-1.55405 4.47682,-2.04644 1.20508,-0.29992 3.06923,-0.89417 4.14256,-1.32054 3.88881,-1.5448 10.08607,-2.893604 18.36812,-3.997728 3.19634,-0.426121 10.18206,-0.470022 10.58556,-0.06652 0.21463,0.214631 -0.15428,0.33052 -1.37584,0.432208 -0.918,0.07642 -3.09784,0.446471 -4.84409,0.822337 -1.74625,0.375866 -4.80967,0.988223 -6.80759,1.360783 -1.99793,0.37256 -5.92699,1.34067 -8.73125,2.15135 -2.80427,0.81067 -6.22976,1.69944 -7.61221,1.97504 -2.55504,0.50936 -8.20208,0.98408 -8.20208,0.68951 z"
       id="path1" /></g></svg>
