<?xml version="1.0" encoding="UTF-8" standalone="no"?>
<!-- Created with Inkscape (http://www.inkscape.org/) -->

<svg
   width="407.26605mm"
   height="221.33821mm"
   viewBox="0 0 407.26605 221.33821"
   version="1.1"
   id="svg1"
   xml:space="preserve"
   inkscape:version="1.4.2 (f4327f4, 2025-05-13)"
   sodipodi:docname="Disney_plus.svg"
   inkscape:export-filename="Disney_plus.png"
   inkscape:export-xdpi="150"
   inkscape:export-ydpi="150"
   xmlns:inkscape="http://www.inkscape.org/namespaces/inkscape"
   xmlns:sodipodi="http://sodipodi.sourceforge.net/DTD/sodipodi-0.dtd"
   xmlns="http://www.w3.org/2000/svg"
   xmlns:svg="http://www.w3.org/2000/svg"><sodipodi:namedview
     id="namedview1"
     pagecolor="#ffffff"
     bordercolor="#000000"
     borderopacity="0.25"
     inkscape:showpageshadow="2"
     inkscape:pageopacity="0.0"
     inkscape:pagecheckerboard="0"
     inkscape:deskcolor="#d1d1d1"
     inkscape:document-units="mm"
     inkscape:zoom="0.36346856"
     inkscape:cx="771.73112"
     inkscape:cy="301.26402"
     inkscape:window-width="1440"
     inkscape:window-height="821"
     inkscape:window-x="-7"
     inkscape:window-y="-7"
     inkscape:window-maximized="1"
     inkscape:current-layer="layer1" /><defs
     id="defs1" /><g
     inkscape:label="Lager 1"
     inkscape:groupmode="layer"
     id="layer1"
     transform="translate(98.785406,-37.776849)"><path
       style="fill:#000000;fill-opacity:1"
       d="m 189.44166,258.55698 c -2.00129,-0.96821 -4.34311,-3.59678 -5.67164,-6.36611 -1.38288,-2.88264 -1.73669,-4.42842 -1.73669,-7.58751 0,-7.58369 3.20005,-19.08301 8.7825,-31.55974 l 1.15965,-2.5918 -0.86426,-1.77383 c -1.31863,-2.70638 -1.80016,-5.18253 -1.75991,-9.04987 0.0487,-4.67514 0.92682,-8.27566 3.2515,-13.33134 2.5308,-5.50394 7.61739,-12.3676 11.58798,-15.63641 2.67134,-2.19919 3.58416,-1.90724 3.5379,1.13155 -0.042,2.75976 -0.72829,4.53547 -4.0342,10.4383 -1.65085,2.94765 -3.40223,6.18435 -3.89194,7.19267 -1.20932,2.48995 -2.1588,6.35668 -2.1588,8.79157 v 1.95808 l 1.7625,-2.58731 c 4.23662,-6.21925 7.84771,-10.73366 11.98545,-14.98363 3.63993,-3.73867 6.48411,-5.9526 9.53538,-7.42242 2.12002,-1.02124 2.38548,-1.08335 4.63021,-1.08335 2.12107,0 2.51644,0.0795 3.61854,0.72734 3.45383,2.03033 5.31941,6.6971 5.31502,13.29558 -0.005,8.02196 -2.03873,13.20094 -7.98796,20.34489 -3.52692,4.23519 -8.21527,7.66654 -12.63496,9.2474 -2.20706,0.78942 -2.54737,0.83574 -6.27785,0.85437 l -3.94429,0.0197 -1.41137,3.55223 c -3.97018,9.99235 -7.24935,22.3803 -8.57432,32.39181 -0.37083,2.80199 -0.5461,3.33443 -1.3417,4.07564 -0.74408,0.69321 -1.3664,0.68287 -2.87674,-0.0478 z m 21.9867,-52.56458 c 5.73297,-1.44495 9.8043,-4.11357 13.14066,-8.61323 2.44144,-3.29273 3.48449,-6.07381 3.69238,-9.84502 0.12392,-2.24779 0.075,-2.8141 -0.29151,-3.37344 -0.57103,-0.87149 -1.56738,-0.87514 -2.70178,-0.01 -1.87103,1.42711 -8.1117,9.10595 -11.39589,14.0221 -1.63426,2.44634 -4.44752,7.13438 -4.74235,7.90268 -0.20621,0.53737 -0.15658,0.53558 2.29849,-0.0832 z m -253.912714,25.1495 c -1.389172,-0.63095 -2.670605,-2.1935 -3.169509,-3.86482 -0.217195,-0.7276 -0.580878,-2.75166 -0.808184,-4.4979 -0.227305,-1.74624 -0.433133,-3.19114 -0.457394,-3.2109 -0.02426,-0.0197 -1.413331,-0.71845 -3.086821,-1.55268 -6.034815,-3.00833 -10.606597,-5.95768 -15.623965,-10.07932 -8.066006,-6.62604 -12.701113,-12.83484 -12.680173,-16.9853 0.0076,-1.50101 0.933549,-3.85989 2.086777,-5.31596 1.166718,-1.4731 3.893927,-3.45875 6.89278,-5.01855 4.563106,-2.37343 13.832691,-5.37015 19.299641,-6.23931 1.512217,-0.24042 2.952108,-0.54557 3.199759,-0.67811 0.385139,-0.20612 0.472852,-0.86463 0.606357,-4.5523 0.240016,-6.62975 1.355678,-14.7741 2.493413,-18.20196 0.815854,-2.45807 1.923147,-2.7536 3.876132,-1.03451 2.926314,2.57584 4.735976,9.022 5.145207,18.32763 l 0.182198,4.14305 5.688541,0.1085 c 4.451686,0.0849 6.604498,0.25685 9.901202,0.7908 7.263255,1.1764 13.4969591,2.93362 17.1200771,4.82599 6.6053659,3.45002 9.7335497,9.61342 7.3916787,14.56367 -1.414104,2.98914 -4.0336069,5.23503 -7.0311981,6.02837 -1.7239013,0.45624 -3.2422625,0.37519 -5.6859251,-0.30351 -1.7509516,-0.48631 -2.1166668,-0.75632 -2.1166668,-1.56275 0,-0.49069 0.3659433,-0.80693 1.8147301,-1.56825 4.3664466,-2.2945 5.1840295,-4.55128 2.1971651,-6.06483 -4.1720172,-2.11413 -16.682492,-4.57707 -25.773875,-5.07413 l -3.373438,-0.18444 -0.0048,1.56002 c -0.01864,6.05491 0.661624,29.37141 0.860732,29.50232 0.379043,0.24922 5.526514,0.99248 9.198236,1.32817 3.538432,0.3235 11.633703,0.17435 15.7427092,-0.29006 6.7341569,-0.7611 13.0881733,-2.48681 18.0185088,-4.89371 6.442458,-3.14508 10.200531,-6.49469 12.686141,-11.30729 1.786188,-3.45839 2.304014,-5.69575 2.314756,-10.00129 0.0078,-3.14391 -0.0774,-3.85718 -0.711432,-5.95312 -2.252059,-7.44466 -6.667101,-14.34491 -13.638211,-21.31508 -4.6146117,-4.614 -8.1516146,-7.48079 -14.171846,-11.4865 -5.4154644,-3.60332 -9.434993,-5.90248 -15.081251,-8.62646 -19.833295,-9.56837 -42.429884,-14.54155 -61.27651,-13.48607 -2.706143,0.15155 -5.980361,0.45945 -7.276042,0.68423 -2.864033,0.49684 -5.927659,1.38027 -5.927659,1.7093 0,0.13276 0.446485,0.31054 0.992188,0.39506 4.114337,0.63722 5.001838,1.01619 5.472216,2.33672 0.191892,0.53871 0.140702,0.80969 -0.23043,1.21978 -0.795086,0.87856 -2.130216,1.15452 -4.884191,1.00951 -6.164897,-0.32461 -7.73077,-2.26699 -5.524803,-6.85325 2.273,-4.72563 5.234634,-6.56077 13.317005,-8.25173 16.797986,-3.51442 32.728019,-2.13164 52.78261,4.58168 18.935504,6.3387 34.9090579,15.3575 48.196308,27.21203 5.382105,4.80176 10.285726,10.36205 13.853981,15.70924 1.861938,2.7902 5.296567,9.57135 6.031822,11.90892 3.029293,9.63091 1.413204,18.91115 -4.829429,27.73256 -5.179346,7.31889 -12.951346,12.38318 -24.1816566,15.75696 -7.02346791,2.10997 -12.5874341,2.86323 -21.2237424,2.87329 -7.352311,0.009 -9.227285,-0.16466 -15.822234,-1.46183 -2.153791,-0.42363 -3.99926,-0.77014 -4.101042,-0.77003 -0.101782,1.2e-4 -0.214884,0.56567 -0.251339,1.25677 -0.159638,3.02645 -1.195892,4.79433 -3.123986,5.32964 -1.606427,0.446 -4.067748,0.3492 -5.295118,-0.20826 z m -4.3545,-33.23357 -0.0069,-13.36146 -0.720381,5.9e-4 c -1.561905,0.001 -8.829479,0.82251 -11.832882,1.3371 -10.30393,1.76545 -15.213542,3.65235 -15.213542,5.84698 0,0.43319 0.134802,1.04769 0.299559,1.36554 1.670498,3.22277 9.512499,9.45559 17.397011,13.82712 2.333974,1.29406 9.265833,4.34023 9.885875,4.34429 0.108938,7.2e-4 0.194984,-6.01136 0.191214,-13.36016 z m 204.609844,22.92294 c -2.68529,-0.92785 -5.41931,-3.46065 -6.83359,-6.33065 -0.63618,-1.29099 -0.76199,-1.91925 -0.86393,-4.3142 -0.13903,-3.2666 0.29554,-5.8587 1.65188,-9.85292 l 0.88355,-2.60192 -0.49669,-1.41317 c -0.75744,-2.15505 -0.91578,-4.10863 -0.41198,-5.08288 0.43809,-0.84716 2.17834,-1.65521 3.59117,-1.66749 0.61265,-0.005 0.85662,-0.3745 2.44783,-3.70416 l 1.76735,-3.69826 h -0.85944 c -0.47269,0 -1.50018,-0.19028 -2.28332,-0.42285 -1.76571,-0.52435 -4.18341,-2.84988 -4.89211,-4.70558 -0.86263,-2.25875 -0.0904,-2.71283 6.74912,-3.9683 7.07633,-1.29895 13.23709,-1.97372 19.97604,-2.18793 5.11752,-0.16267 5.33773,-0.14832 6.69132,0.43599 2.46353,1.06345 6.14097,5.82793 6.14097,7.95622 0,0.83453 -0.92358,1.70736 -2.06294,1.94957 -2.10673,0.44788 -6.48387,0.96341 -11.36376,1.33841 -3.02005,0.23208 -6.2275,0.48481 -7.12766,0.56162 l -1.63665,0.13967 -0.92855,2.77293 -0.92856,2.77294 4.15498,-0.1826 c 5.31414,-0.23353 9.09537,0.0281 9.90643,0.68557 0.54738,0.4437 0.59401,0.6997 0.59401,3.26146 0,2.54374 -0.0522,2.83548 -0.61385,3.43311 -0.33761,0.35922 -0.99246,0.72929 -1.45521,0.82238 -0.5998,0.12066 -13.66817,0.90123 -15.81518,0.94463 -0.25347,0.005 -2.72239,8.45662 -2.52739,8.65162 0.0976,0.0976 1.81311,-0.14373 3.81225,-0.5363 5.26886,-1.03464 11.22676,-1.98253 13.67628,-2.17585 2.08501,-0.16456 2.15294,-0.15082 3.26258,0.65999 1.80119,1.31613 2.7352,3.2986 2.32469,4.93421 -0.46824,1.86562 -5.7101,5.84734 -11.11088,8.43985 -6.60629,3.17117 -12.02907,4.25613 -15.41876,3.08489 z m 114.74984,-1.43719 c -1.17833,-0.59601 -1.29111,-1.2751 -0.8878,-5.34617 0.39172,-3.95409 0.8229,-16.10539 0.66893,-18.85156 l -0.0927,-1.65364 h -12.16047 c -12.80647,0 -13.37963,-0.0499 -13.82193,-1.20248 -0.0904,-0.23557 -0.16435,-1.95774 -0.16435,-3.82704 0,-4.95844 -1.40692,-4.49548 13.66172,-4.49548 h 12.26745 l -9.2e-4,-0.59532 c -0.004,-2.51655 -1.29567,-13.35573 -2.27826,-19.11614 -1.05235,-6.16942 -1.03111,-5.81784 -0.39015,-6.4588 0.53401,-0.53401 0.78504,-0.56282 4.30212,-0.49373 3.64405,0.0716 3.74647,0.0895 4.20515,0.73482 0.80762,1.13628 2.61001,13.2118 3.2087,21.4974 l 0.32023,4.43177 h 12.76431 12.76431 l 0.74236,0.63801 c 0.71849,0.6175 0.74525,0.73295 0.83244,3.59159 0.059,1.93312 -0.0225,3.22532 -0.23571,3.74009 -0.64465,1.55633 -0.63535,1.55531 -14.08623,1.55531 h -12.27377 l -0.17388,7.60677 c -0.21078,9.22094 -0.79028,16.55433 -1.37918,17.4531 -0.22643,0.34558 -0.71088,0.74208 -1.07654,0.8811 -0.98511,0.37454 -5.9286,0.30858 -6.71582,-0.0896 z M 46.566658,218.9534 c -3.609531,-1.24319 -4.272596,-4.03884 -4.254684,-17.93882 0.02302,-17.86045 1.894729,-28.90918 4.896117,-28.90177 0.73262,0.002 2.358628,1.01675 3.053051,1.90569 0.821544,1.05166 1.527683,3.32662 1.979877,6.37854 1.236159,8.343 2.278223,33.10991 1.507192,35.82166 -0.822345,2.89221 -3.62526,3.95955 -7.181553,2.7347 z m 32.146877,-0.9157 c -3.070874,-0.45851 -4.386716,-0.77589 -6.77959,-1.63521 -4.001516,-1.43703 -7.222608,-3.39219 -9.746313,-5.91589 -5.880767,-5.88077 -3.4251,-12.96422 5.148819,-14.85194 2.626116,-0.5782 8.144646,-0.40357 12.333941,0.39029 5.517343,1.04552 10.539707,2.96946 11.129232,4.26333 0.799751,1.75526 -2.708113,3.84155 -7.782407,4.62856 -2.359268,0.36592 -4.402237,-0.0656 -8.540357,-1.80385 -3.978818,-1.67134 -6.340166,-2.28252 -7.909479,-2.04719 -1.43736,0.21555 -2.845484,1.12187 -3.16805,2.03908 -0.5681,1.61538 0.52302,2.79836 3.672873,3.98209 1.469811,0.55236 2.007765,0.59586 7.275705,0.58833 4.817426,-0.007 6.093713,-0.0957 8.334376,-0.58014 7.287053,-1.57538 12.832292,-4.57155 12.832292,-6.93348 0,-1.18074 -1.568223,-2.6708 -3.623445,-3.44286 -3.911479,-1.46937 -8.021345,-2.14774 -19.209206,-3.17065 -4.772594,-0.43636 -9.472906,-0.97786 -10.44514,-1.20333 -2.274161,-0.52742 -3.738518,-1.39778 -4.708488,-2.79858 -0.731903,-1.05699 -0.775181,-1.26842 -0.775181,-3.78704 0,-2.45594 0.06762,-2.81032 0.852385,-4.46715 2.116412,-4.46826 7.500084,-7.74079 15.684074,-9.53376 4.920382,-1.07797 7.698857,-1.35075 13.626042,-1.33777 4.517025,0.01 6.12535,0.11813 8.598959,0.57872 4.954963,0.92263 8.643993,2.37849 9.217743,3.63775 0.66558,1.46078 -0.87453,3.887 -3.06425,4.82729 -1.877814,0.80635 -4.351275,1.07526 -13.82641,1.50321 -12.511766,0.5651 -18.077924,1.22937 -21.497397,2.56551 -1.01667,0.39725 -0.948436,1.17028 0.132292,1.49874 1.50124,0.45626 2.029881,0.53352 10.2569,1.49917 13.142296,1.54258 15.532292,1.95456 19.073561,3.28779 4.978104,1.87419 7.918044,6.53542 7.905734,12.53441 -0.0131,6.39362 -3.627,11.33562 -10.219648,13.97544 -4.235581,1.69601 -10.227012,2.38887 -14.779567,1.70913 z m 31.550915,-0.70084 c -1.07135,-0.56558 -2.09183,-1.94085 -2.53862,-3.42124 -2.15227,-7.13128 0.27652,-28.51577 4.09447,-36.05013 0.9589,-1.89229 2.36155,-3.32057 3.58433,-3.64983 2.04103,-0.5496 3.93324,0.95176 8.01449,6.359 2.55644,3.38702 4.0223,5.59778 7.51959,11.34077 4.52267,7.42679 5.71619,9.04901 6.36336,8.64904 1.24303,-0.76823 -1.19442,-13.94351 -5.29223,-28.6064 -1.21079,-4.33246 -1.34087,-6.27332 -0.49272,-7.35156 0.3016,-0.38342 0.78259,-0.69714 1.06887,-0.69714 1.87346,0 6.77701,4.59674 9.29226,8.71085 1.72335,2.81882 3.41066,6.9235 4.3206,10.51059 1.82634,7.19965 1.91269,16.45375 0.21799,23.36328 -0.92703,3.77961 -3.03216,6.86162 -5.52622,8.09064 -1.433,0.70614 -4.36819,0.71739 -5.76785,0.0221 -2.9167,-1.44888 -7.10183,-7.31324 -12.10582,-16.96308 -2.41936,-4.66557 -3.82072,-7.01146 -4.18842,-7.01146 -0.42979,0 -0.8158,4.20897 -1.09503,11.94022 -0.2868,7.94055 -0.69102,11.48866 -1.49609,13.13218 -0.96663,1.97334 -3.83958,2.7584 -5.97296,1.63217 z M 37.701745,166.81094 c -1.689028,-0.64243 -3.012162,-3.28884 -3.143665,-6.28766 -0.0853,-1.94531 -0.169211,-2.20943 -1.170124,-3.68334 -2.784094,-4.09976 -3.003892,-8.65736 -0.647964,-13.43577 3.225673,-6.54248 12.252996,-12.9618 20.627912,-14.6685 6.088458,-1.24075 10.384033,-0.38412 13.781709,2.74836 0.975882,0.89971 1.837217,1.45319 2.435796,1.5652 2.693518,0.50404 5.858076,2.90491 6.978509,5.29441 1.901368,4.05497 0.505083,9.16888 -3.733704,13.67474 -6.126006,6.51198 -13.965261,10.94875 -21.276787,12.04199 -2.407042,0.3599 -2.96429,0.35896 -5.442683,-0.009 -1.518597,-0.22561 -2.981934,-0.52839 -3.251858,-0.67285 -0.755668,-0.40442 -0.924687,-0.32983 -1.370377,0.60479 -0.96908,2.03218 -2.625853,3.26942 -3.786764,2.82787 z m 19.580539,-12.25212 c 2.919062,-0.83326 6.538142,-2.63244 8.965479,-4.45706 3.943623,-2.96441 5.619035,-6.90823 3.990572,-9.39358 -0.492272,-0.7513 -2.305282,-1.65526 -3.337035,-1.66383 -1.028748,-0.009 -4.148693,0.99703 -5.517974,1.77846 -2.259538,1.28949 -6.138018,4.37978 -8.846028,7.04832 -2.632958,2.59457 -5.97064,6.68824 -5.97064,7.32299 0,0.23182 1.069017,0.27752 4.167188,0.17813 3.404011,-0.10921 4.603288,-0.25818 6.548438,-0.81343 z m -14.16941,-9.28632 c 1.207564,-1.38205 3.163278,-3.37125 4.346032,-4.42044 3.285121,-2.91416 3.123966,-2.68629 1.753586,-2.4795 -2.654781,0.40061 -6.880784,2.94743 -9.111736,5.49124 -2.262485,2.57976 -2.992777,4.88056 -2.237144,7.04817 l 0.292787,0.83989 1.380452,-1.98327 c 0.759249,-1.0908 2.368459,-3.11404 3.576023,-4.49609 z m 223.557676,2.1006 c -0.50382,-0.27382 -1.06949,-1.22028 -2.08896,-3.49514 C 244.0265,98.010996 204.64887,64.527827 156.50104,51.976065 148.82147,49.974062 140.29355,48.445839 132.20114,47.621467 101.89883,44.534579 71.270864,50.005816 43.948851,63.386445 19.536674,75.342018 -1.3944139,93.039046 -17.043457,114.95484 c -2.51027,3.51552 -3.214309,4.21496 -4.255512,4.22766 -0.765099,0.009 -5.751022,-1.79479 -6.20448,-2.24504 -0.830715,-0.82486 -0.455119,-1.99137 1.573338,-4.88642 C -10.520315,90.057895 8.2075516,72.96121 31.267516,59.835282 32.966685,58.8681 36.836217,56.851811 39.866474,55.354641 81.805749,34.633545 131.44611,32.10346 175.35263,48.449143 c 37.08255,13.805229 67.90916,39.536052 88.24306,73.656067 4.26531,7.15713 11.57098,22.2101 11.57098,23.84143 0,0.28836 -0.29225,0.81653 -0.64943,1.17372 -0.62047,0.62047 -0.79452,0.64896 -3.90261,0.63884 -2.29126,-0.007 -3.45746,-0.12163 -3.94408,-0.3861 z"
       id="path1" /></g></svg>
