<?xml version="1.0" encoding="UTF-8" standalone="no"?>
<!-- Created with Inkscape (http://www.inkscape.org/) -->

<svg
   version="1.1"
   id="svg1"
   width="1583"
   height="433.91571"
   viewBox="0 0 1583 433.91571"
   sodipodi:docname="MAX.svg"
   xml:space="preserve"
   inkscape:version="1.4.2 (f4327f4, 2025-05-13)"
   inkscape:export-filename="MAX.png"
   inkscape:export-xdpi="200"
   inkscape:export-ydpi="200"
   xmlns:inkscape="http://www.inkscape.org/namespaces/inkscape"
   xmlns:sodipodi="http://sodipodi.sourceforge.net/DTD/sodipodi-0.dtd"
   xmlns="http://www.w3.org/2000/svg"
   xmlns:svg="http://www.w3.org/2000/svg"><defs
     id="defs1" /><sodipodi:namedview
     id="namedview1"
     pagecolor="#ffffff"
     bordercolor="#000000"
     borderopacity="0.25"
     inkscape:showpageshadow="2"
     inkscape:pageopacity="0.0"
     inkscape:pagecheckerboard="0"
     inkscape:deskcolor="#d1d1d1"
     showgrid="false"
     inkscape:zoom="0.25979189"
     inkscape:cx="800.64085"
     inkscape:cy="-517.72209"
     inkscape:window-width="1440"
     inkscape:window-height="821"
     inkscape:window-x="-7"
     inkscape:window-y="-7"
     inkscape:window-maximized="1"
     inkscape:current-layer="g1" /><g
     inkscape:groupmode="layer"
     inkscape:label="Image"
     id="g1"
     transform="translate(666.10548,-791.32861)"><path
       style="fill:#000000;stroke:none;fill-opacity:1"
       d="m -560.10548,853.5243 v -51 h -106 v 412 h 113 v -183 -51 c 0,-6.02261 -1.77681,-15.51398 1.02778,-20.98535 4.03345,-7.86875 16.04409,-13.94733 22.97222,-19.14121 20.93016,-15.69085 59.97972,-47.96029 87,-27.34103 22.98161,17.53735 16,56.22729 16,81.46759 v 220 h 113 v -184 -51 c 0,-5.97185 -1.8028,-15.55649 1.02777,-20.96063 3.96274,-7.56571 16.23142,-13.6312 22.97223,-18.66513 20.91852,-15.62159 60.16748,-47.31647 87,-26.84183 23.02118,17.56637 16,56.1456 16,81.46759 v 220 h 112.999996 v -217 c 0,-40.6843 4.28162,-83.99985 -4.00311,-124 -11.01794,-53.19644 -55.093016,-85.6019 -108.996886,-81.91049 -36.32834,2.48782 -69.40799,17.9418 -100,36.72143 -11.95172,7.33686 -23.16168,18.76172 -36,24.18906 -4.5361,-25.44678 -33.03629,-46.9826 -56,-54.66666 -68.71353,-22.99276 -127.62326,19.84775 -182,55.66666 m 857,308 v 37 c 0,3.7312 -1.4234,11.3018 1.02777,14.3966 3.52393,4.4493 21.5918,1.6034 26.97223,1.6034 h 80 v -412 h -80 c -5.38037,0 -23.4483,-2.84589 -26.97223,1.60339 -2.45111,3.09476 -1.02777,10.66541 -1.02777,14.39661 v 37 c -16.97137,-18.42551 -35.15015,-35.23196 -58,-46.21606 -85.50439,-41.10264 -191.158634,-8.5835 -245.5717144,67.21606 -56.9832796,79.37997 -56.1791996,191.4831 3.99688,269 21.3973404,27.5634 48.9083904,48.7841 80.5748304,63.2307 34.150394,15.5798 73.154974,19.6444 110.000004,14.1906 44.82263,-6.6346 77.96948,-29.737 109,-61.4213 m 129,-359 c 5.42639,17.02869 21.48376,34.51978 31.85962,49 25.28271,35.28381 52.22278,69.13199 80.56396,102 11.10291,12.87631 22.85718,25.17216 34.00086,38 2.94653,3.39186 11.46704,9.2295 11.5238,14 0.0593,4.9921 -8.49438,11.4997 -11.5238,15 -11.19788,12.9383 -22.40393,25.8382 -33.34339,39 -27.90979,33.58 -54.1239,68.4836 -79.50244,104 -10.8424,15.1735 -27.89148,33.153 -33.57861,51 h 100 c 8.13123,0 29.96814,3.8368 36.21448,-1.6034 9.65722,-8.4108 16.12732,-24.8375 23.50549,-35.3966 17.58179,-25.1617 36.0426,-49.672 56.00916,-73 6.94262,-8.1114 13.95837,-16.1426 21.18518,-24 2.15539,-2.3436 5.37817,-7.9445 9,-7.9445 3.08545,0 6.18921,4.9373 8.06103,6.9445 7.48389,8.0251 14.42102,16.5685 21.43823,25 18.35071,22.0494 35.61768,45.1654 51.5857,69 7.98047,11.9121 15.17492,28.8307 25.51843,38.6821 6.46045,6.153 27.89684,2.3179 36.48234,2.3179 h 102 c -6.5464,-17.2716 -21.7091,-33.8982 -32.2801,-49 -24.4511,-34.9311 -50.0235,-69.2182 -77.3064,-102 -15.238,-18.3093 -30.90658,-43.2207 -50.41354,-57 v -1 c 14.12634,-12.21916 26.03784,-27.92239 38.28164,-42 23.9093,-27.49048 46.7319,-55.85349 68.5918,-85 17.888,-23.8508 40.3381,-48.96747 53.1266,-76 h -94 c -10.9822,0 -29.6958,-3.6427 -39.81559,0.60339 -4.17407,1.75138 -6.79761,7.81635 -9.18445,11.39661 -6.30591,9.45889 -12.76917,18.78256 -19.42444,28 -16.77722,23.23639 -35.0592,45.38647 -53.85718,67 -8.73645,10.04501 -21.61755,20.24023 -27.71838,32 -11.15491,-7.87958 -20.29077,-20.746 -29.28467,-31 -19.24719,-21.94379 -37.52698,-44.48422 -54.83105,-68 -6.46973,-8.79224 -12.49707,-17.91922 -18.55091,-27 -2.46142,-3.69217 -5.02185,-9.54239 -8.85107,-11.97223 -7.73254,-4.9068 -28.36011,-1.02777 -37.4823,-1.02777 h -98 m -258,84.28549 c 74.39355,-8.78232 133.48413,65.08136 126.83026,134.71451 -5.43848,56.9145 -51.91003,101.0949 -107.83026,107.7145 C 83.208726,1141.5128 14.904286,1018.1272 76.372906,935.5243 98.960066,905.17118 131.40789,891.1171 167.89452,886.80979 m -5,28.14276 c -14.3559,2.05564 -27.77234,6.5138 -40,14.43674 -10.19617,6.6066 -18.83441,15.09759 -25.655884,25.13501 -45.88904,67.5234 11.269714,158.117 91.655884,146.7145 11.96948,-1.6978 23.73132,-6.231 34,-12.5255 69.58496,-42.654 52.30725,-155.58051 -29,-172.18516 -10.01483,-2.04522 -20.81824,-3.03353 -31,-1.57559 z"
       id="path59233" /></g></svg>
