<?xml version="1.0" encoding="UTF-8" standalone="no"?>
<!-- Created with Inkscape (http://www.inkscape.org/) -->

<svg
   width="181.50418mm"
   height="31.750099mm"
   viewBox="0 0 181.50418 31.750099"
   version="1.1"
   id="svg1"
   xml:space="preserve"
   inkscape:version="1.4.2 (f4327f4, 2025-05-13)"
   sodipodi:docname="svt_text.svg"
   xmlns:inkscape="http://www.inkscape.org/namespaces/inkscape"
   xmlns:sodipodi="http://sodipodi.sourceforge.net/DTD/sodipodi-0.dtd"
   xmlns="http://www.w3.org/2000/svg"
   xmlns:svg="http://www.w3.org/2000/svg"><sodipodi:namedview
     id="namedview1"
     pagecolor="#ffffff"
     bordercolor="#000000"
     borderopacity="0.25"
     inkscape:showpageshadow="2"
     inkscape:pageopacity="0.0"
     inkscape:pagecheckerboard="0"
     inkscape:deskcolor="#d1d1d1"
     inkscape:document-units="mm"
     inkscape:zoom="0.51402217"
     inkscape:cx="339.47952"
     inkscape:cy="-106.02656"
     inkscape:window-width="1440"
     inkscape:window-height="821"
     inkscape:window-x="-7"
     inkscape:window-y="-7"
     inkscape:window-maximized="1"
     inkscape:current-layer="layer1" /><defs
     id="defs1" /><g
     inkscape:label="Lager 1"
     inkscape:groupmode="layer"
     id="layer1"
     transform="translate(-19.71382,-182.38172)"><path
       style="fill:#000000;fill-opacity:1"
       d="m 19.713829,211.08906 v -3.04271 h 5.953126 5.953125 v -3.57187 -3.57188 h -3.836459 -3.836458 v -1.45521 -1.4552 h -2.116667 -2.116667 v -5.942 -5.942 l 2.050521,-0.0773 2.050521,-0.0773 0.07823,-1.78593 0.07823,-1.78594 h 7.396245 7.396245 v 3.04271 3.04271 h -5.792526 c -5.037951,0 -5.813447,0.0545 -5.953125,0.41851 -0.208924,0.54445 -0.208924,5.76228 0,6.30672 0.136152,0.35481 0.74029,0.41852 3.96875,0.41852 h 3.808151 v 1.4552 1.45521 h 1.984375 1.984375 v 5.95313 5.95312 h -1.984375 -1.984375 v 1.85209 1.85208 H 27.254446 19.71382 Z m 30.956251,-1.71979 v -4.7625 h -1.719791 -1.719792 v -4.7625 -4.7625 H 45.11383 42.997163 v -6.35 -6.35 h 3.567253 3.567253 l 0.07077,6.54844 0.07077,6.54843 2.044461,0.0772 2.044461,0.0772 0.07221,4.68533 0.07221,4.68533 1.828399,0.0792 c 1.283825,0.0556 1.893349,-0.0232 2.046469,-0.26459 0.119939,-0.18908 0.219894,-2.33808 0.222122,-4.77555 l 0.0041,-4.43177 h 1.984375 1.984375 v -6.61459 -6.61458 h 3.571875 3.571875 v 6.35 6.35 h -1.984375 -1.984375 v 4.7625 4.7625 h -1.852084 -1.852083 v 4.7625 4.7625 H 56.358622 50.67008 Z m 30.956251,-8.06979 v -12.83229 h -3.836458 -3.836459 v -3.04271 -3.04271 h 11.377084 11.377084 v 3.04271 3.04271 h -3.808151 c -3.22846,0 -3.832598,0.0637 -3.96875,0.41851 -0.08833,0.23018 -0.1606,6.00471 -0.1606,12.83229 v 12.41378 h -3.571875 -3.571875 z m 34.924999,0 v -12.83229 h -3.83646 -3.83646 v -3.04271 -3.04271 h 11.2448 11.24479 v 3.03544 3.03545 l -3.77032,0.0734 -3.77031,0.0734 -0.0687,12.76614 -0.0687,12.76615 h -3.56934 -3.56933 z m 23.22928,11.04635 -0.0782,-1.78594 -2.05052,-0.0773 -2.05052,-0.0773 v -1.44407 -1.44408 h -1.71979 -1.71979 v -7.80521 -7.80521 h 1.71979 1.71979 v -1.45521 -1.45521 h 7.40833 7.40834 v 1.0367 c 0,1.79386 0.0971,1.87372 2.27726,1.87372 h 1.95607 v 4.49792 4.49791 h -7.67292 -7.67291 v 3.57188 3.57187 h 7.67291 7.67292 v 1.19063 1.19062 h -1.95607 c -2.24192,0 -2.27726,0.0352 -2.27726,2.2706 v 1.43357 h -5.27958 -5.27958 z m 11.27054,-14.24299 c 0.0883,-0.23018 0.1606,-0.81576 0.1606,-1.30128 0,-1.79711 0.27488,-1.71979 -6.11373,-1.71979 h -5.79252 v 1.71979 1.71979 h 5.79252 c 5.03795,0 5.81345,-0.0545 5.95313,-0.41851 z m 7.83351,14.44143 v -1.5875 h 1.95607 c 1.5396,0 1.99026,-0.0891 2.11667,-0.41851 0.0883,-0.23019 0.1606,-1.53419 0.1606,-2.8978 v -2.47927 l 1.65364,-0.0788 1.65365,-0.0788 0.0738,-3.50572 0.0738,-3.50573 h -1.72747 -1.72747 v -2.88878 c 0,-1.58883 -0.0723,-3.07711 -0.1606,-3.30729 -0.12641,-0.32941 -0.57707,-0.41852 -2.11667,-0.41852 h -1.95607 v -1.19062 -1.19063 h 3.56374 3.56373 l 0.0743,3.24115 0.0743,3.24114 4.03489,0.073 4.0349,0.073 v -3.31418 -3.31419 h 3.57187 3.57188 v 1.178 1.178 l -1.65365,0.0788 -1.65364,0.0788 -0.0742,3.23017 -0.0742,3.23016 -2.04246,0.0771 -2.04247,0.0771 v 3.43958 3.43958 l 2.05052,0.0773 2.05053,0.0773 v 2.89928 2.89929 h 1.71979 1.71979 v 1.5875 1.5875 h -3.57188 -3.57187 v -3.30729 -3.30729 h -1.98438 -1.98437 v 1.44408 1.44407 l -2.05052,0.0773 -2.05052,0.0773 -0.0782,1.78594 -0.0782,1.78594 h -3.55979 -3.55979 z m 35.18959,0.15393 c 0,-2.23536 -0.0353,-2.2706 -2.27727,-2.2706 h -1.95606 v -7.67291 -7.67292 h -1.85209 -1.85208 v -1.5875 -1.5875 h 1.85208 1.85209 v -4.7625 -4.7625 h 3.57187 3.57188 v 4.7625 4.7625 h 2.11666 2.11667 v 1.5875 1.5875 h -2.11667 -2.11666 v 7.9375 7.9375 h 2.11666 2.11667 v 1.5875 1.5875 h -3.57188 -3.57187 z"
       id="path1" /></g></svg>
