<?xml version="1.0" encoding="UTF-8" standalone="no"?>
<svg
   xml:space="preserve"
   id="Tele2Play_Horizontal_White_svg__Comhem_Play"
   x="0"
   y="0"
   viewBox="0 0 1019.5501 198.24001"
   width="269.75595mm"
   height="52.451mm"
   class="hidden h-8 w-40 lg-2:block"
   aria-label="Tele2 Play-logga"
   version="1.1"
   sodipodi:docname="tele2_play.svg"
   inkscape:version="1.4.2 (f4327f4, 2025-05-13)"
   xmlns:inkscape="http://www.inkscape.org/namespaces/inkscape"
   xmlns:sodipodi="http://sodipodi.sourceforge.net/DTD/sodipodi-0.dtd"
   xmlns="http://www.w3.org/2000/svg"
   xmlns:svg="http://www.w3.org/2000/svg"><defs
     id="defs7" /><sodipodi:namedview
     id="namedview7"
     pagecolor="#ffffff"
     bordercolor="#000000"
     borderopacity="0.25"
     inkscape:showpageshadow="2"
     inkscape:pageopacity="0.0"
     inkscape:pagecheckerboard="0"
     inkscape:deskcolor="#d1d1d1"
     inkscape:zoom="0.5"
     inkscape:cx="483"
     inkscape:cy="253"
     inkscape:window-width="1440"
     inkscape:window-height="821"
     inkscape:window-x="-7"
     inkscape:window-y="-7"
     inkscape:window-maximized="1"
     inkscape:current-layer="Tele2Play_Horizontal_White_svg__Comhem_Play"
     inkscape:document-units="mm" /><style
     id="style1">.Tele2Play_Horizontal_White_svg__st0{fill:#fff}</style><g
     id="g7"
     style="display:inline"
     transform="translate(-0.38,-1.51)"><path
       d="M 280.14,36.92 H 373.7 V 49.35 H 333.73 V 157.64 H 319.95 V 49.35 h -39.8 V 36.92 Z m 160.58,79.18 h -62.26 c 1.02,20.09 11.06,31.5 26.03,31.5 11.23,0 19.22,-6.13 21.77,-17.03 l 12.93,1.7 c -2.72,15.67 -15.65,27.24 -34.7,27.24 -22.96,0 -39.63,-18.73 -39.63,-45.46 0,-26.22 15.82,-45.63 39.63,-45.63 23.13,0 36.23,17.71 36.23,42.91 z m -61.58,-11.75 h 47.97 c -1.36,-12.94 -8.16,-24.18 -22.79,-24.18 -12.42,0 -22.28,9.03 -25.18,24.18 m 94.58,53.29 H 460.11 V 31.82 h 13.61 z m 95.09,-41.54 h -62.26 c 1.02,20.09 11.06,31.5 26.03,31.5 11.23,0 19.22,-6.13 21.77,-17.03 l 12.93,1.7 c -2.72,15.67 -15.65,27.24 -34.7,27.24 -22.96,0 -39.63,-18.73 -39.63,-45.46 0,-26.22 15.82,-45.63 39.63,-45.63 23.13,0 36.23,17.71 36.23,42.91 z m -61.58,-11.75 h 47.97 c -1.36,-12.94 -8.16,-24.18 -22.79,-24.18 -12.42,0 -22.29,9.03 -25.18,24.18 m 96.28,40.86 h 56.99 v 12.43 h -79.44 v -6.3 l 41.34,-46.99 c 12.25,-14.13 22.11,-23.16 22.11,-35.07 0,-13.11 -8.85,-21.79 -23.13,-21.79 -15.82,0 -25.01,11.24 -26.88,27.41 l -13.1,-2.04 c 2.55,-22.48 18.37,-37.97 40.49,-37.97 22.62,0 36.06,14.47 36.06,33.37 0,17.03 -11.91,27.92 -24.16,41.89 z m 134.38,-37.97 v 50.4 H 724.11 V 36.92 h 41.85 c 23.65,0 38.78,12.94 38.78,35.07 0,21.96 -15.14,35.24 -38.78,35.24 h -28.07 z m 27.73,-58.06 h -27.73 v 45.63 h 27.73 c 15.82,0 25.18,-8.34 25.18,-22.82 0,-14.48 -9.36,-22.81 -25.18,-22.81 m 70.6,108.46 H 822.61 V 31.82 h 13.61 z m 89.47,-58.06 v 58.06 h -13.44 v -11.41 c -4.93,6.64 -14.29,13.11 -27.05,13.11 -18.03,0 -30.28,-10.73 -30.28,-26.05 0,-17.2 12.93,-28.09 33.34,-28.09 h 23.99 v -5.28 c 0,-12.43 -7.65,-19.41 -19.39,-19.41 -11.23,0 -17.35,4.6 -20.58,13.28 l -13.44,-1.87 c 3.74,-14.13 15.99,-23.33 34.19,-23.33 21.26,0 32.66,11.75 32.66,30.99 m -13.44,33.2 v -16.01 h -23.82 c -11.74,0 -19.9,6.13 -19.9,16.18 0,10.22 9.36,14.81 18.88,14.81 10.38,0.01 19.06,-5.44 24.84,-14.98 M 1005.3,70.3 h 14.63 L 971.28,193.06 H 956.65 L 971.79,156.45 937.6,70.3 h 14.46 l 26.71,69.3 z"
       class="Tele2Play_Horizontal_White_svg__st0"
       id="path1"
       style="fill:#000000;fill-opacity:1" /><path
       d="m 24.17,152.17 c -13.14,0 -23.79,10.65 -23.79,23.79 0,13.14 10.65,23.79 23.79,23.79 13.14,0 23.79,-10.65 23.79,-23.79 0,-13.14 -10.65,-23.79 -23.79,-23.79"
       style="fill:#0065ff"
       id="path2" /><path
       d="m 24.17,76.84 c -13.14,0 -23.79,10.65 -23.79,23.79 0,13.14 10.65,23.79 23.79,23.79 13.14,0 23.79,-10.65 23.79,-23.79 0,-13.14 -10.65,-23.79 -23.79,-23.79"
       style="fill:#00b9ed"
       id="path3" /><path
       d="m 99.7,114.51 c -13.14,0 -23.79,10.65 -23.79,23.79 0,13.14 10.65,23.79 23.79,23.79 13.14,0 23.79,-10.65 23.79,-23.79 0,-13.14 -10.65,-23.79 -23.79,-23.79"
       style="fill:#c300ff"
       id="path4" /><path
       d="m 174.83,76.84 c -13.14,0 -23.79,10.65 -23.79,23.79 0,13.14 10.65,23.79 23.79,23.79 13.14,0 23.79,-10.65 23.79,-23.79 0,-13.14 -10.65,-23.79 -23.79,-23.79"
       style="fill:#cf024c"
       id="path5" /><path
       d="M 24.17,1.51 C 11.03,1.51 0.38,12.16 0.38,25.3 0.38,38.44 11.03,49.09 24.17,49.09 37.31,49.09 47.96,38.44 47.96,25.3 47.96,12.16 37.31,1.51 24.17,1.51"
       style="fill:#00c94f"
       id="path6" /><path
       d="m 99.5,86.75 c 13.14,0 23.79,-10.65 23.79,-23.79 0,-13.14 -10.65,-23.79 -23.79,-23.79 -13.14,0 -23.79,10.66 -23.79,23.79 0,13.14 10.66,23.79 23.79,23.79"
       style="fill:#d9b008"
       id="path7" /></g></svg>
