<?xml version="1.0" encoding="UTF-8" standalone="no"?>
<svg
   version="1.1"
   width="535.70538"
   height="128.86842"
   xml:space="preserve"
   viewBox="0 0 535.70538 128.86842"
   id="svg22"
   sodipodi:docname="Viaplay.svg"
   inkscape:version="1.4.2 (f4327f4, 2025-05-13)"
   xmlns:inkscape="http://www.inkscape.org/namespaces/inkscape"
   xmlns:sodipodi="http://sodipodi.sourceforge.net/DTD/sodipodi-0.dtd"
   xmlns="http://www.w3.org/2000/svg"
   xmlns:svg="http://www.w3.org/2000/svg"><sodipodi:namedview
     id="namedview22"
     pagecolor="#ffffff"
     bordercolor="#000000"
     borderopacity="0.25"
     inkscape:showpageshadow="2"
     inkscape:pageopacity="0.0"
     inkscape:pagecheckerboard="0"
     inkscape:deskcolor="#d1d1d1"
     inkscape:zoom="1.7710715"
     inkscape:cx="152.16777"
     inkscape:cy="64.65013"
     inkscape:window-width="1440"
     inkscape:window-height="821"
     inkscape:window-x="-7"
     inkscape:window-y="-7"
     inkscape:window-maximized="1"
     inkscape:current-layer="svg22" /><defs
     id="defs16"><linearGradient
       id="a"
       x1="4.24333"
       y1="58.3064"
       x2="47.688702"
       y2="58.3064"
       gradientUnits="userSpaceOnUse"
       gradientTransform="matrix(1.9449959,0,0,1.9449959,-1.4091242,0)"><stop
         stop-color="#EBF5F7"
         id="stop1" /><stop
         offset=".1524"
         stop-color="#F1F8FA"
         id="stop2" /><stop
         offset=".5381"
         stop-color="#FCFDFE"
         id="stop3" /><stop
         offset="1"
         stop-color="#fff"
         id="stop4" /></linearGradient><linearGradient
       id="b"
       x1="52.104401"
       y1="76.5783"
       x2="77.753799"
       y2="15.3213"
       gradientUnits="userSpaceOnUse"
       gradientTransform="matrix(1.9449959,0,0,1.9449959,-1.4091242,0)"><stop
         offset=".1"
         stop-color="#C09"
         id="stop5" /><stop
         offset=".1989"
         stop-color="#CF0090"
         id="stop6" /><stop
         offset=".3602"
         stop-color="#D70078"
         id="stop7" /><stop
         offset=".5638"
         stop-color="#E40050"
         id="stop8" /><stop
         offset=".7995"
         stop-color="#F70019"
         id="stop9" /><stop
         offset=".9"
         stop-color="red"
         id="stop10" /></linearGradient><linearGradient
       id="c"
       x1="52.104401"
       y1="76.5783"
       x2="77.753799"
       y2="15.3213"
       gradientUnits="userSpaceOnUse"
       gradientTransform="matrix(1.9449959,0,0,1.9449959,-1.4091242,0)"><stop
         offset=".1"
         stop-color="#C09"
         id="stop11" /><stop
         offset=".1989"
         stop-color="#CF0090"
         id="stop12" /><stop
         offset=".3602"
         stop-color="#D70078"
         id="stop13" /><stop
         offset=".5638"
         stop-color="#E40050"
         id="stop14" /><stop
         offset=".7995"
         stop-color="#F70019"
         id="stop15" /><stop
         offset=".9"
         stop-color="red"
         id="stop16" /></linearGradient></defs><path
     d="M 195.55088,101.40333 H 182.07945 L 156.68636,36.24422 h 12.16595 l 9.30797,24.726732 c 3.6743,9.745596 7.34859,19.57191 10.77781,29.317506 3.51091,-9.826313 7.10292,-19.813478 10.85871,-29.639792 l 9.22706,-24.404446 h 12.00257 z m 45.23476,-79.012538 c 0,4.107832 -3.34733,7.571091 -7.75664,7.571091 -4.4093,0 -7.75664,-3.463259 -7.75664,-7.571091 0,-4.107598 3.34734,-7.570935 7.75664,-7.570935 4.40931,0 7.75664,3.463337 7.75664,7.570935 z M 227.3146,101.40333 V 36.24422 h 11.43074 v 65.15911 z m 77.40306,-43.895832 v 43.895832 h -10.85891 v -8.618081 c -4.16424,6.604428 -12.32933,10.228931 -22.37329,10.228931 -13.30766,0 -23.35162,-5.879531 -23.35162,-18.76649 0,-16.913878 17.14708,-19.57191 34.86599,-23.437978 l 10.61385,-2.255223 v -0.241568 c 0,-9.906642 -6.77637,-13.77271 -16.00343,-13.77271 -10.12565,0 -17.47384,4.671491 -21.55639,8.215273 l -3.75579,-9.504028 c 5.06283,-4.027114 13.88144,-8.537559 25.80232,-8.537559 16.90201,-0.08052 26.61727,8.859651 26.61727,22.793601 z m -11.10398,16.189173 v -5.960245 l -9.63551,2.094177 c -16.90007,3.705022 -24.41359,6.121291 -24.41359,14.336564 0,6.040768 5.06282,9.342982 13.55468,9.342982 11.10398,-0.08052 20.49442,-5.718482 20.49442,-19.813478 z m 87.61039,-4.913254 c 0,20.860664 -12.41102,34.230763 -30.86319,34.230763 -9.63551,0 -17.31047,-3.543785 -22.37329,-10.309453 V 120.65315 H 316.55685 V 36.24422 h 11.02229 v 10.228928 c 5.06282,-7.651614 13.22792,-11.839774 23.43331,-11.839774 17.96398,0 30.21162,13.370096 30.21162,34.150043 z m -11.59412,0 c 0,-14.739179 -8.24678,-24.082161 -20.6578,-24.082161 -12.41102,0 -21.4747,9.342982 -21.4747,24.323924 0,14.578133 8.65523,24.001638 21.22963,24.001638 12.5744,0 20.90287,-9.423505 20.90287,-24.243401 z m 21.22768,32.619913 V 17.316687 h 11.43269 v 84.086643 z m 77.48669,-43.895832 v 43.895832 h -10.85891 v -8.618081 c -4.16423,6.604428 -12.32933,10.228931 -22.37328,10.228931 -13.30767,0 -23.35163,-5.879531 -23.35163,-18.76649 0,-16.913878 17.14709,-19.57191 34.86406,-23.437978 l 10.61578,-2.255223 v -0.241568 c 0,-9.906642 -6.77636,-13.77271 -16.00342,-13.77271 -10.12565,0 -17.47385,4.671491 -21.55639,8.215273 l -3.75579,-9.504028 c 5.06283,-4.027114 13.88144,-8.537559 25.80232,-8.537559 16.90007,-0.08052 26.61726,8.859651 26.61726,22.793601 z m -11.10398,16.189173 v -5.960245 l -9.63551,2.094177 c -16.90201,3.705022 -24.41358,6.121291 -24.41358,14.336564 0,6.040768 5.06282,9.342982 13.55467,9.342982 11.10398,-0.08052 20.49442,-5.718482 20.49442,-19.813478 z m 54.54158,23.437978 c -6.12285,15.544601 -13.7978,21.665891 -27.84262,24.968111 l -3.59241,-9.10122 c 6.85806,-2.25523 12.98285,-4.42993 17.55554,-10.87331 L 472.1818,36.24422 h 12.16595 l 8.81861,23.437978 c 3.6741,9.826119 8.0834,21.504847 10.85891,29.15646 3.02058,-7.812659 7.26651,-19.330341 11.02229,-29.15646 l 8.81862,-23.437978 h 11.83919 z"
     fill="#212d33"
     id="path16" /><path
     d="M 91.3664,77.320976 V 51.547447 L 22.954088,15.389235 C 16.364073,20.933796 10.821827,27.911858 6.8832684,35.611902 L 65.319988,64.434212 6.8832684,93.256327 c 3.9447436,7.767343 9.4341246,14.639013 16.0708196,20.222703 z"
     fill="url(#a)"
     id="path17"
     style="fill:url(#a)" /><path
     fill-rule="evenodd"
     clip-rule="evenodd"
     d="m 130.63995,64.434212 c 0,35.586028 -29.24476,64.434208 -65.319962,64.434208 -16.165833,0 -30.960249,-5.79297 -42.3659,-15.38919 L 91.3664,77.320976 V 51.547447 L 22.954088,15.389235 C 34.359739,5.7929368 49.154155,0 65.319988,0 101.39519,0 130.63995,28.848179 130.63995,64.434212 Z"
     fill="url(#b)"
     id="path18"
     style="fill:url(#b)" /><path
     d="M 6.8832684,93.256327 65.319988,64.434212 6.8832684,35.612096 C 2.4787864,44.284638 0,54.073802 0,64.434212 0,74.794621 2.4787475,84.583785 6.8832684,93.256327 Z"
     fill="url(#c)"
     id="path19"
     style="fill:url(#c)" /></svg>
